# xmcd CD database file
#
# Track frame offsets:
#	150
#	25967
#	46447
#	68472
#	88105
#	110780
#	131162
#	152027
#	171445
#	189615
#	211510
#	230455
#	251530
#	274265
#	293427
#	314757
#
# Disc length: 4568 seconds
#
# Revision: 0
# Processed by: cddbd v1.5.1PL0 Copyright (c) Steve Scherf et al.
# Submitted via: CDex 1.50
#
DISCID=e911d610
DTITLE=ラッパ我リヤ - BEST of RG
DYEAR=2004
DGENRE=Hip-Hop
TTITLE0=K.I.D - 走馬党
TTITLE1=yearと言え
TTITLE2=R.G.力学
TTITLE3=Do the GARIYA thing
TTITLE4=ヤバスギルスキルPart 4
TTITLE5=新時代
TTITLE6=ライムダービー
TTITLE7=It's A Show Time
TTITLE8=プロフェッショナル現場アクター
TTITLE9=THE SESSION
TTITLE10=エンターテイナー
TTITLE11=Enter the 我 〜燃えよ！我リヤ〜
TTITLE12=ヤバスギルスキルpt.6
TTITLE13=NORINA
TTITLE14=KANPAI
TTITLE15=走馬党 GRAND PRIX
EXTD=YEAR: 2004/09/22
EXTT0=
EXTT1=
EXTT2=
EXTT3=
EXTT4=
EXTT5=
EXTT6=
EXTT7=
EXTT8=
EXTT9=
EXTT10=
EXTT11=
EXTT12=
EXTT13=
EXTT14=
EXTT15=
PLAYORDER=
